<?xml version="1.0" standalone="no"?>
<!DOCTYPE svg PUBLIC "-//W3C//DTD SVG 20010904//EN"
 "http://www.w3.org/TR/2001/REC-SVG-20010904/DTD/svg10.dtd">
<svg version="1.0" xmlns="http://www.w3.org/2000/svg"
 width="2048.000000pt" height="2048.000000pt" viewBox="0 0 2048.000000 2048.000000"
 preserveAspectRatio="xMidYMid meet">

<g transform="translate(0.000000,2048.000000) scale(0.100000,-0.100000)"
fill="#000000" stroke="none">
<path d="M13663 19195 c-135 -59 -459 -386 -591 -597 -170 -273 -201 -454
-105 -631 34 -61 77 -97 171 -144 39 -20 72 -39 72 -43 0 -4 -21 -25 -47 -46
-191 -156 -275 -298 -290 -486 l-6 -76 -261 -4 c-242 -3 -264 -5 -301 -24 -22
-12 -49 -36 -60 -55 -19 -32 -20 -50 -18 -349 1 -173 9 -461 17 -639 9 -178
16 -331 16 -340 0 -9 -134 117 -299 280 -165 163 -438 429 -608 591 -510 489
-863 846 -1044 1055 -30 34 -87 99 -128 145 -41 46 -99 112 -130 148 -140 162
-221 247 -260 275 -39 27 -50 30 -119 30 -113 0 -148 -21 -275 -163 -57 -64
-162 -189 -232 -277 -189 -236 -665 -797 -725 -855 -3 -3 -35 -39 -70 -80
-134 -153 -468 -528 -540 -605 -42 -44 -138 -150 -215 -235 -76 -85 -168 -187
-204 -225 -36 -39 -109 -117 -161 -175 -142 -156 -361 -392 -464 -500 -50 -52
-159 -167 -241 -255 -245 -262 -533 -554 -1439 -1459 -811 -809 -1129 -1121
-1601 -1571 -787 -751 -1264 -1224 -1291 -1280 -25 -53 -24 -131 2 -176 11
-18 39 -47 63 -64 35 -25 52 -30 99 -30 84 1 137 35 319 206 237 223 570 531
702 648 175 156 183 163 371 340 259 243 409 390 1240 1210 963 950 1431 1423
1769 1786 36 39 108 115 161 170 52 55 161 172 241 260 81 88 218 238 305 334
88 96 238 263 333 370 96 108 249 277 340 375 161 173 315 346 491 551 47 54
121 140 166 189 232 262 559 669 754 939 l85 118 20 -27 c113 -153 398 -481
630 -724 204 -213 910 -911 1325 -1310 140 -134 347 -335 460 -446 247 -243
301 -291 354 -315 50 -23 85 -24 132 -4 66 27 98 82 114 197 16 107 -11 761
-56 1375 -10 128 -15 235 -12 239 3 3 127 0 274 -6 215 -9 781 -28 867 -30 18
0 18 -7 12 -107 -3 -60 -13 -184 -20 -278 -35 -417 -55 -1048 -58 -1835 -2
-445 -2 -456 19 -501 13 -28 69 -96 140 -171 66 -68 205 -214 310 -323 229
-240 438 -470 757 -832 242 -274 651 -685 907 -911 150 -132 410 -349 765
-639 506 -413 994 -764 1145 -823 65 -26 151 -26 207 -1 77 35 105 138 62 223
-26 51 -72 95 -260 251 -294 244 -398 328 -594 479 -452 347 -518 398 -705
547 -439 351 -650 552 -1219 1161 -85 91 -177 190 -205 220 -104 115 -210 225
-531 554 -181 186 -337 348 -345 360 -13 18 -15 112 -14 706 1 377 6 883 13
1125 25 937 26 1037 7 1073 -26 50 -53 61 -172 72 -86 7 -637 30 -734 30 -16
0 -19 4 -12 18 5 9 14 39 21 66 41 167 173 290 511 476 199 109 290 179 342
259 54 85 31 187 -52 229 -61 30 -121 28 -260 -9 -315 -86 -376 -94 -416 -53
-22 21 -25 31 -19 62 4 20 14 50 22 67 25 48 228 330 321 445 155 190 209 290
197 363 -8 43 -44 91 -86 112 -35 19 -114 19 -156 0z"/>
<path d="M5967 12134 c-213 -51 -385 -214 -460 -434 -31 -92 -32 -100 -32
-265 0 -159 2 -175 28 -248 56 -160 115 -257 377 -617 260 -356 332 -494 334
-630 1 -66 -3 -84 -32 -142 -58 -118 -177 -198 -293 -198 -64 0 -144 28 -222
79 -86 57 -123 67 -191 52 -98 -22 -164 -119 -153 -226 7 -68 28 -108 87 -164
170 -166 528 -188 817 -50 174 83 330 266 390 457 23 75 25 93 20 210 -5 149
-22 205 -113 383 -60 118 -233 383 -346 529 -103 135 -243 352 -274 427 -25
61 -28 80 -29 183 0 129 17 184 78 249 58 61 115 91 173 91 29 0 63 -4 76 -9
40 -15 84 -70 126 -155 57 -118 107 -155 192 -143 54 7 94 38 122 95 34 70 33
195 -4 275 -53 113 -180 210 -324 247 -92 24 -258 26 -347 4z"/>
<path d="M11250 12074 c-129 -56 -185 -195 -126 -312 30 -58 68 -95 126 -121
54 -25 80 -26 146 -6 65 19 131 76 160 139 28 60 29 76 8 145 -18 62 -73 127
-129 152 -49 23 -137 24 -185 3z"/>
<path d="M7215 11665 c-50 -25 -93 -82 -104 -139 -15 -72 -31 -264 -31 -376 0
-125 -5 -138 -44 -144 -273 -40 -328 -56 -354 -106 -33 -65 10 -174 89 -227
34 -22 51 -26 112 -26 40 -1 97 3 128 7 l56 7 7 -158 c24 -541 100 -849 252
-1012 120 -130 305 -171 452 -99 62 29 140 103 163 153 27 58 25 141 -4 196
-41 76 -81 82 -188 28 -31 -16 -68 -29 -81 -29 -84 0 -150 149 -177 402 -15
135 -32 561 -23 568 4 4 75 14 157 24 215 25 275 36 318 58 61 30 97 109 82
176 -8 37 -62 92 -107 108 -53 20 -240 14 -400 -12 l-37 -6 2 244 c2 272 -2
298 -59 348 -32 27 -41 30 -107 30 -44 0 -84 -6 -102 -15z"/>
<path d="M14175 11266 c-90 -18 -142 -37 -235 -87 -109 -59 -164 -104 -234
-191 -157 -195 -246 -470 -246 -756 0 -155 18 -243 67 -342 46 -91 109 -157
188 -196 53 -26 71 -29 150 -29 85 0 96 3 167 38 42 20 90 53 107 72 17 19 33
35 37 35 4 0 4 -138 0 -307 -15 -696 -51 -843 -206 -843 -58 1 -136 33 -247
103 -49 31 -106 63 -126 72 -50 21 -143 19 -192 -4 -52 -23 -102 -81 -111
-126 -20 -110 69 -215 267 -314 295 -146 540 -176 723 -90 27 12 76 47 109 78
88 82 136 194 168 396 16 106 21 643 12 1545 l-8 815 -27 47 c-43 72 -84 92
-198 95 -52 1 -126 -4 -165 -11z m2 -498 c-13 -286 -111 -591 -225 -701 -23
-23 -47 -37 -58 -35 -9 1 -28 23 -41 48 -23 43 -24 52 -20 200 5 162 14 210
65 348 56 150 167 272 250 272 l35 0 -6 -132z"/>
<path d="M9550 11108 c-62 -34 -77 -65 -89 -187 -26 -249 -7 -559 43 -695 55
-152 158 -284 260 -335 137 -68 321 -20 445 114 l41 45 0 -73 c0 -39 -5 -123
-10 -185 -10 -127 -24 -161 -102 -242 -247 -258 -363 -418 -432 -596 -51 -132
-69 -236 -64 -364 4 -97 8 -114 40 -181 42 -88 93 -143 168 -178 47 -22 69
-26 150 -26 158 0 262 53 359 182 146 195 228 469 267 898 8 94 20 181 27 194
12 24 201 203 270 255 62 48 97 103 97 155 0 53 -31 114 -72 144 -48 35 -121
18 -240 -55 -20 -12 -40 -19 -45 -15 -4 5 -9 45 -10 90 -21 764 -31 925 -62
985 -39 76 -155 105 -246 63 -63 -29 -84 -59 -100 -142 -8 -41 -24 -126 -36
-189 -24 -128 -68 -259 -133 -394 -46 -97 -90 -152 -131 -162 -32 -8 -48 6
-73 64 -39 89 -46 169 -37 412 11 300 11 309 -10 353 -28 60 -67 81 -155 85
-64 3 -82 0 -120 -20z m656 -1985 c-2 -10 -12 -57 -20 -104 -24 -131 -84 -338
-111 -384 -52 -90 -75 -82 -75 26 0 76 26 172 72 264 71 141 153 263 134 198z"/>
<path d="M12734 11116 c-23 -7 -61 -27 -85 -43 -98 -68 -249 -257 -287 -359
-9 -24 -20 -44 -24 -44 -4 0 -8 21 -8 48 0 78 -29 234 -53 282 -12 25 -37 55
-56 67 -68 45 -195 19 -245 -50 -21 -28 -21 -38 -21 -685 0 -612 1 -660 18
-704 33 -86 102 -123 218 -116 124 7 148 41 184 263 28 165 69 337 110 462 70
207 218 463 269 463 14 0 27 -124 36 -355 25 -641 32 -703 91 -770 37 -42 85
-58 158 -53 119 8 200 79 209 181 2 29 -5 124 -16 212 -12 88 -26 212 -32 275
-48 515 -77 681 -138 793 -33 62 -100 123 -148 136 -51 14 -129 13 -180 -3z"/>
<path d="M8579 11100 c-53 -16 -148 -73 -202 -121 -103 -91 -244 -330 -291
-491 -48 -166 -61 -261 -61 -448 0 -152 3 -186 23 -260 46 -167 114 -265 222
-320 142 -73 356 32 492 242 28 43 54 78 57 78 4 0 15 -24 25 -52 27 -79 105
-206 157 -260 131 -132 359 -85 359 74 0 37 -12 64 -75 169 -93 153 -127 241
-160 404 -31 158 -44 297 -53 585 -6 187 -10 230 -24 252 -19 29 -186 118
-267 142 -57 17 -157 20 -202 6z m111 -375 c29 -77 -73 -540 -162 -727 -62
-132 -108 -163 -121 -81 -10 57 -8 219 3 298 34 237 132 454 234 516 38 23 35
24 46 -6z"/>
<path d="M11310 11081 c-57 -18 -92 -43 -107 -79 -45 -107 -38 -1178 9 -1332
58 -193 327 -214 379 -29 19 67 -36 1256 -61 1335 -26 79 -134 131 -220 105z"/>
<path d="M15960 10778 c-65 -35 -78 -65 -90 -204 -12 -140 -11 -3165 1 -3734
13 -633 34 -981 64 -1086 42 -146 162 -208 262 -135 103 75 122 232 130 1066
11 1267 -60 3461 -128 3919 -19 135 -58 185 -147 193 -36 4 -57 -1 -92 -19z"/>
<path d="M3645 10606 c-37 -17 -70 -52 -85 -91 -21 -53 -30 -447 -34 -1430 -6
-1616 15 -2911 48 -3021 40 -131 144 -194 249 -150 98 40 129 158 148 561 17
336 -4 1783 -36 2575 -3 74 -12 315 -20 535 -26 701 -35 877 -46 920 -7 26
-24 56 -45 76 -29 28 -42 33 -91 36 -35 2 -70 -2 -88 -11z"/>
<path d="M9105 7859 c-109 -15 -270 -56 -322 -83 -115 -58 -166 -162 -129
-261 30 -78 100 -103 217 -76 91 21 83 54 76 -316 -4 -181 -3 -601 3 -935 5
-334 7 -613 4 -621 -3 -8 -22 -24 -43 -35 -90 -51 -84 -179 14 -272 20 -19 52
-60 71 -91 39 -65 102 -126 140 -135 42 -11 131 3 173 27 45 25 59 49 67 124
7 53 8 55 43 64 461 108 631 160 796 244 124 62 214 124 287 200 118 121 158
217 158 378 0 156 -45 264 -155 375 -108 107 -283 199 -450 235 -33 7 -61 13
-63 14 -2 2 44 49 101 106 109 109 164 185 204 282 46 114 47 270 2 360 -90
177 -360 330 -705 397 -125 25 -378 35 -489 19z m425 -391 c154 -26 301 -102
342 -178 39 -71 4 -184 -86 -271 -53 -54 -155 -117 -291 -184 -147 -72 -131
-93 -138 177 -4 128 -7 288 -7 356 l0 123 58 -6 c31 -3 86 -11 122 -17z m225
-1053 c85 -18 183 -53 270 -97 206 -104 248 -216 129 -348 -51 -56 -123 -101
-250 -155 -105 -45 -479 -165 -513 -165 -16 0 -18 20 -24 263 -4 144 -7 315
-7 379 0 134 -8 125 105 131 150 8 221 6 290 -8z"/>
<path d="M5410 7569 c-95 -43 -143 -116 -144 -221 -1 -58 3 -71 29 -109 66
-94 191 -134 286 -92 166 74 208 252 90 374 -69 71 -170 89 -261 48z"/>
<path d="M11253 7075 c-82 -22 -132 -52 -205 -122 -53 -52 -76 -85 -116 -166
-60 -121 -77 -177 -96 -317 -42 -296 -40 -555 4 -724 60 -232 196 -387 400
-456 125 -42 298 -10 434 80 93 63 157 134 204 229 31 63 37 85 36 137 -1 121
-97 199 -213 173 -54 -12 -96 -46 -154 -125 -53 -72 -88 -99 -149 -114 -65
-17 -99 3 -138 80 -31 62 -60 175 -60 236 0 32 4 36 78 73 169 86 296 205 371
351 93 180 104 355 31 500 -47 93 -113 141 -228 166 -83 17 -132 17 -199 -1z
m107 -354 c24 -46 -2 -189 -47 -258 -17 -26 -62 -53 -88 -53 -20 0 -20 57 1
158 17 81 42 132 77 157 29 20 44 19 57 -4z"/>
<path d="M12905 6997 c-159 -42 -328 -204 -410 -394 -33 -74 -34 -75 -39 -42
-3 19 -7 66 -10 104 -19 248 -110 334 -294 280 -88 -27 -87 -18 -90 -400 -2
-181 1 -494 6 -695 8 -341 10 -368 29 -405 44 -84 107 -119 214 -118 123 1
189 49 224 165 7 26 26 141 40 255 29 227 61 345 131 485 79 158 199 319 273
368 38 25 54 30 108 30 73 0 103 13 152 64 30 31 35 44 39 94 4 62 -10 105
-51 149 -49 55 -220 86 -322 60z"/>
<path d="M14215 6973 c-145 -53 -284 -226 -361 -451 -38 -109 -36 -113 -59 96
-17 152 -31 203 -66 252 -45 60 -142 86 -212 56 -54 -22 -69 -48 -74 -123 -7
-100 16 -1113 27 -1218 18 -162 78 -232 204 -242 130 -11 181 37 216 202 91
427 212 807 299 943 63 97 74 95 95 -19 24 -126 45 -380 60 -724 8 -187 19
-343 26 -360 36 -94 103 -130 232 -123 107 6 143 24 171 86 20 47 20 47 3 307
-53 816 -104 1078 -238 1230 -77 88 -217 126 -323 88z"/>
<path d="M6980 6859 c-56 -11 -150 -59 -205 -106 -85 -71 -181 -220 -235 -366
-12 -32 -24 -57 -26 -54 -2 2 -11 61 -19 131 -19 161 -46 234 -95 258 -72 37
-187 10 -233 -54 -30 -40 -39 -181 -32 -513 13 -703 18 -768 60 -841 39 -66
128 -95 228 -74 101 21 113 43 202 380 89 337 179 598 248 715 31 53 75 105
89 105 16 0 46 -83 62 -170 15 -80 42 -359 67 -690 13 -183 23 -236 53 -281
35 -52 85 -73 176 -73 82 0 116 13 164 61 16 15 32 38 37 51 13 35 11 144 -6
268 -8 60 -28 213 -45 339 -89 665 -140 821 -294 893 -51 25 -136 34 -196 21z"/>
<path d="M5450 6668 c-32 -16 -51 -35 -65 -63 -19 -39 -20 -57 -18 -550 4
-729 13 -798 109 -852 52 -30 160 -31 221 -4 103 47 117 128 84 491 -11 129
-28 364 -36 521 -16 291 -30 386 -63 422 -52 58 -155 73 -232 35z"/>
<path d="M17115 5795 c-50 -17 -112 -85 -121 -132 -17 -91 21 -177 97 -215 46
-24 151 -24 204 1 69 31 115 105 115 181 0 34 -32 100 -61 127 -56 51 -152 67
-234 38z"/>
</g>
</svg>
